<?xml version="1.0" encoding="UTF-8" standalone="no"?>
<!-- Created with Inkscape (http://www.inkscape.org/) -->

<svg
   width="4.2041664mm"
   height="4.1750002mm"
   viewBox="0 0 42.041664 41.750003"
   version="1.1"
   id="svg5"
   sodipodi:docname="dialogue_preview.svg"
   inkscape:version="1.1.1 (3bf5ae0d25, 2021-09-20)"
   xmlns:inkscape="http://www.inkscape.org/namespaces/inkscape"
   xmlns:sodipodi="http://sodipodi.sourceforge.net/DTD/sodipodi-0.dtd"
   xmlns="http://www.w3.org/2000/svg"
   xmlns:svg="http://www.w3.org/2000/svg">
  <sodipodi:namedview
     id="namedview7"
     pagecolor="#ffffff"
     bordercolor="#666666"
     borderopacity="1.0"
     inkscape:pageshadow="2"
     inkscape:pageopacity="0.0"
     inkscape:pagecheckerboard="true"
     inkscape:document-units="mm"
     showgrid="false"
     fit-margin-top="0.5"
     fit-margin-left="0.25"
     fit-margin-right="0.25"
     fit-margin-bottom="0.5"
     width="5.29167mm"
     height="42.33333mm"
     inkscape:zoom="24.886869"
     inkscape:cx="2.6720919"
     inkscape:cy="8.8199124"
     inkscape:window-width="2560"
     inkscape:window-height="1377"
     inkscape:window-x="-8"
     inkscape:window-y="-8"
     inkscape:window-maximized="1"
     inkscape:current-layer="layer1" />
  <defs
     id="defs2" />
  <g
     inkscape:label="Layer 1"
     inkscape:groupmode="layer"
     id="layer1"
     transform="translate(135.86632,-103.955)">
    <path
       style="fill:#fefefe;stroke-width:0.264583"
       d="m -130.72048,136.73625 v -3.96875 h 1.32291 1.32292 v -2.64584 -2.64583 h -1.32292 -1.32291 V 126.15291 124.83 h -1.32292 -1.32292 v -3.96875 -3.96875 h 1.32292 1.32292 v -1.32292 -1.32292 h 1.32291 1.32292 v -1.32291 -1.32292 h 2.64583 2.64583 v -1.32292 -1.32291 h 7.9375 7.9375 v 1.32291 1.32292 h 2.64583 2.64584 v 1.32292 1.32291 h 1.32291 1.322921 v 1.32292 1.32292 h 1.322916 1.322917 v 3.96875 3.96875 h -1.322917 -1.322916 v 1.32291 1.32292 h -1.322921 -1.32291 v 1.32292 1.32291 h -2.64584 -2.64583 v 1.32292 1.32292 h -6.61458 -6.61458 v 1.32291 1.32292 h -2.64584 -2.64583 v 1.32292 1.32291 h -1.32291 -1.32292 v 1.32292 1.32292 h -1.32292 -1.32291 z"
       id="path367" />
  </g>
</svg>
