<?xml version="1.0" encoding="UTF-8" standalone="no"?>
<!-- Created with Inkscape (http://www.inkscape.org/) -->

<svg
   width="4.2333322mm"
   height="4.2333326mm"
   viewBox="0 0 42.333322 42.333327"
   version="1.1"
   id="svg5"
   inkscape:version="1.1.1 (3bf5ae0d25, 2021-09-20)"
   sodipodi:docname="play_button.svg"
   xmlns:inkscape="http://www.inkscape.org/namespaces/inkscape"
   xmlns:sodipodi="http://sodipodi.sourceforge.net/DTD/sodipodi-0.dtd"
   xmlns="http://www.w3.org/2000/svg"
   xmlns:svg="http://www.w3.org/2000/svg">
  <sodipodi:namedview
     id="namedview7"
     pagecolor="#ffffff"
     bordercolor="#666666"
     borderopacity="1.0"
     inkscape:pageshadow="2"
     inkscape:pageopacity="0.0"
     inkscape:pagecheckerboard="true"
     inkscape:document-units="mm"
     showgrid="false"
     fit-margin-top="0.264583"
     fit-margin-left="0.264583"
     fit-margin-right="0.264583"
     fit-margin-bottom="0.264583"
     width="5.29167mm"
     inkscape:zoom="35.195347"
     inkscape:cx="9.7882257"
     inkscape:cy="3.1112067"
     inkscape:window-width="2560"
     inkscape:window-height="1377"
     inkscape:window-x="2552"
     inkscape:window-y="-8"
     inkscape:window-maximized="1"
     inkscape:current-layer="layer1" />
  <defs
     id="defs2" />
  <g
     inkscape:label="Layer 1"
     inkscape:groupmode="layer"
     id="layer1"
     transform="translate(-27.384206,-149.95454)">
    <path
       style="fill:#fefefe;stroke-width:0.264583"
       d="m 30.030036,171.12121 v -18.52084 h 2.645834 2.645833 v 1.32292 1.32292 h 2.645833 2.645833 v 1.32291 1.32292 h 2.645833 2.645834 v 1.32292 1.32291 h 2.645833 2.645833 v 1.32292 1.32292 h 2.645833 2.645834 v 1.32291 1.32292 h 2.645833 2.645833 v 1.32292 1.32291 h 2.645834 2.645833 v 2.64584 2.64583 h -2.645833 -2.645834 v 1.32292 1.32291 h -2.645833 -2.645833 v 1.32292 1.32292 h -2.645834 -2.645833 v 1.32291 1.32292 h -2.645833 -2.645833 v 1.32292 1.32291 h -2.645834 -2.645833 v 1.32292 1.32292 h -2.645833 -2.645833 v 1.32291 1.32292 H 32.67587 30.030036 Z"
       id="path139" />
  </g>
</svg>
