<?xml version="1.0" encoding="UTF-8" standalone="no"?>
<!-- Created with Inkscape (http://www.inkscape.org/) -->

<svg
   width="14"
   height="16"
   viewBox="0 0 140 160"
   version="1.1"
   id="svg2217"
   shape-rendering="crispEdges"
   inkscape:version="1.1.1 (3bf5ae0d25, 2021-09-20)"
   sodipodi:docname="trash.svg"
   xmlns:inkscape="http://www.inkscape.org/namespaces/inkscape"
   xmlns:sodipodi="http://sodipodi.sourceforge.net/DTD/sodipodi-0.dtd"
   xmlns:xlink="http://www.w3.org/1999/xlink"
   xmlns="http://www.w3.org/2000/svg"
   xmlns:svg="http://www.w3.org/2000/svg">
  <sodipodi:namedview
     id="namedview2219"
     pagecolor="#ffffff"
     bordercolor="#666666"
     borderopacity="1.0"
     inkscape:pageshadow="2"
     inkscape:pageopacity="0.0"
     inkscape:pagecheckerboard="true"
     inkscape:document-units="px"
     showgrid="false"
     fit-margin-top="0"
     fit-margin-left="0"
     fit-margin-right="0"
     fit-margin-bottom="0"
     inkscape:zoom="17.597674"
     inkscape:cx="14.348488"
     inkscape:cy="14.831506"
     inkscape:window-width="1672"
     inkscape:window-height="1368"
     inkscape:window-x="582"
     inkscape:window-y="0"
     inkscape:window-maximized="0"
     inkscape:current-layer="layer1"
     objecttolerance="20"
     units="px" />
  <defs
     id="defs2214">
    <color-profile
       name="Agfa-:-Swop-Standard"
       xlink:href="file:///C:/WINDOWS/system32/spool/drivers/color/RSWOP.icm"
       id="color-profile10661" />
  </defs>
  <g
     inkscape:label="Layer 1"
     inkscape:groupmode="layer"
     id="layer1"
     transform="translate(4.9510692,-85.767265)">
    <path
       style="fill:#000000"
       id="path10086"
       d="" />
    <path
       style="fill:#fefefe"
       d="m 65.048931,245.76727 h -50 v -5 -5 h -5 -5.0000002 v -35 -35 H 0.04893079 -4.9510692 v -10 -9.99999 H 0.04893079 5.0489308 v -10.00001 -10 h 5.0000002 5 v 45 45 h 10 10 v -45 -45 h 10 10 v 45 45 h 10 10 v -45 -45 h 10 10 v 45 45 h 9.999989 10 v -45 -45 h 5 5 v 10 10.00001 h 5.00001 5 v 9.99999 10 h -5 -5.00001 v 35 35 h -5 -5 v 5 5 z m 0,-10 h 49.999989 v -5 -5 h -49.999989 -50 v 5 5 z m 0,-120 H -4.9510692 v -10 -10.000005 h 25.0000002 25 v -5 -5 h 20 20 v 5 5 h 24.999989 25.00001 v 10.000005 10 z"
       id="path10506" />
  </g>
</svg>
